HIERARCHY
ROOT root
{
  OFFSET 0.000000 0.000000 0.000000
  CHANNELS 6 Xposition Yposition Zposition Zrotation Yrotation Xrotation
  JOINT lhipjoint
  {
    OFFSET 0.000000 0.000000 0.000000
    CHANNELS 3 Zrotation Yrotation Xrotation
    JOINT lfemur
    {
      OFFSET 0.092895 -0.080368 0.053214
      CHANNELS 3 Zrotation Yrotation Xrotation
      JOINT ltibia
      {
        OFFSET 0.119402 -0.328054 0.000000
        CHANNELS 3 Zrotation Yrotation Xrotation
        JOINT lfoot
        {
          OFFSET 0.133514 -0.366828 0.000000
          CHANNELS 3 Zrotation Yrotation Xrotation
          JOINT ltoes
          {
            OFFSET 0.010024 -0.027541 0.098137
            CHANNELS 3 Zrotation Yrotation Xrotation
            End Site
            {
              OFFSET 0.000000 -0.000000 0.051480
            }
          }
        }
      }
    }
  }
  JOINT rhipjoint
  {
    OFFSET 0.000000 0.000000 0.000000
    CHANNELS 3 Zrotation Yrotation Xrotation
    JOINT rfemur
    {
      OFFSET -0.081139 -0.080368 0.053214
      CHANNELS 3 Zrotation Yrotation Xrotation
      JOINT rtibia
      {
        OFFSET -0.118805 -0.326413 0.000000
        CHANNELS 3 Zrotation Yrotation Xrotation
        JOINT rfoot
        {
          OFFSET -0.132577 -0.364252 0.000000
          CHANNELS 3 Zrotation Yrotation Xrotation
          JOINT rtoes
          {
            OFFSET -0.012893 -0.035423 0.101865
            CHANNELS 3 Zrotation Yrotation Xrotation
            End Site
            {
              OFFSET -0.000000 -0.000000 0.054123
            }
          }
        }
      }
    }
  }
  JOINT lowerback
  {
    OFFSET 0.000000 0.000000 0.000000
    CHANNELS 3 Zrotation Yrotation Xrotation
    JOINT upperback
    {
      OFFSET 0.003509 0.109365 -0.027811
      CHANNELS 3 Zrotation Yrotation Xrotation
      JOINT thorax
      {
        OFFSET -0.001757 0.114933 -0.003291
        CHANNELS 3 Zrotation Yrotation Xrotation
        JOINT lowerneck
        {
          OFFSET -0.003947 0.121461 0.009804
          CHANNELS 3 Zrotation Yrotation Xrotation
          JOINT upperneck
          {
            OFFSET 0.002495 0.079592 0.014993
            CHANNELS 3 Zrotation Yrotation Xrotation
            JOINT head
            {
              OFFSET -0.007567 0.081194 0.003489
              CHANNELS 3 Zrotation Yrotation Xrotation
              End Site
              {
                OFFSET -0.002811 0.082321 -0.000389
              }
            }
          }
        }
        JOINT lclavicle
        {
          OFFSET -0.003947 0.121461 0.009804
          CHANNELS 3 Zrotation Yrotation Xrotation
          JOINT lhumerus
          {
            OFFSET 0.123265 0.083398 -0.020147
            CHANNELS 3 Zrotation Yrotation Xrotation
            JOINT lradius
            {
              OFFSET 0.285304 -0.000000 0.000000
              CHANNELS 3 Zrotation Yrotation Xrotation
              JOINT lwrist
              {
                OFFSET 0.191354 -0.000000 0.000000
                CHANNELS 3 Zrotation Yrotation Xrotation
                End Site
                {
                  OFFSET 0.095677 -0.000000 -0.000000
                }
              }
            }
          }
        }
        JOINT rclavicle
        {
          OFFSET -0.003947 0.121461 0.009804
          CHANNELS 3 Zrotation Yrotation Xrotation
          JOINT rhumerus
          {
            OFFSET -0.116294 0.097558 -0.026776
            CHANNELS 3 Zrotation Yrotation Xrotation
            JOINT rradius
            {
              OFFSET -0.286179 -0.000000 0.000000
              CHANNELS 3 Zrotation Yrotation Xrotation
              JOINT rwrist
              {
                OFFSET -0.177776 -0.000000 -0.000000
                CHANNELS 3 Zrotation Yrotation Xrotation
                End Site
                {
                  OFFSET -0.088888 -0.000000 -0.000000
                }
              }
            }
          }
        }
      }
    }
  }
}
MOTION
Frames: 15
Frame Time: 0.04166667
0.00000 0.87051 0.00000 -4.90739 0.00001 1.15498 0.00000 -0.00000 0.00000 -12.02845 -12.83021 -7.03948 2.87421 10.48859 30.57387 1.19561 10.79617 -27.13962 0.28754 -3.44849 -9.52998 0.00000 -0.00000 0.00000 22.66074 9.04961 -2.12073 -1.23721 -7.05342 19.87373 -0.35749 -21.21890 -32.31913 -1.44168 7.59080 -21.47792 0.06950 2.74206 10.27040 -4.33523 3.22990 7.74242 -4.81781 1.55235 2.60154 9.86001 3.67571 -10.92120 -1.27623 3.52287 6.69598 -1.73280 1.91669 3.97776 0.00000 0.00000 0.00000 -83.77141 -11.94868 44.17803 151.49283 -39.57896 -109.55475 -0.00000 0.00000 -5.83607 0.00000 0.00000 0.00000 92.60063 21.57214 68.08496 -134.31380 51.10025 -97.22846 0.00000 -0.00000 -0.17703
0.00000 0.87353 0.00000 -3.84723 -2.25431 2.04066 0.00000 -0.00000 0.00000 -13.27024 -13.64482 -5.99970 2.53792 9.90653 28.67458 0.98065 13.13004 -27.62474 0.30189 -3.53275 -9.76568 0.00000 -0.00000 0.00000 21.51948 11.29413 -2.45950 -1.19661 -6.94092 19.54046 -0.29568 -21.23959 -31.95433 -1.52969 7.80879 -22.13482 -1.41026 1.79621 9.19852 -2.79617 1.95853 7.17162 -2.24661 0.84261 2.34773 9.15299 4.34842 -10.31110 -5.16847 5.00481 7.08675 -2.72560 2.44802 4.15794 0.00000 -0.00000 0.00000 -85.43294 -19.00313 50.42699 154.71177 -36.49714 -111.53926 -0.00000 0.00000 -4.45198 0.00000 -0.00000 0.00000 90.53438 22.39836 68.95947 -141.12214 47.39084 -102.39116 0.00000 -0.00000 -1.56594
0.00000 0.87163 0.00000 -2.69497 -3.17378 1.67812 0.00000 -0.00000 0.00000 -14.11195 -12.82545 -6.61562 2.58604 9.99269 28.95306 0.84407 13.19991 -26.67342 0.32462 -3.66211 -10.12795 0.00000 -0.00000 0.00000 20.09246 10.37668 -5.04972 -1.53977 -7.83331 22.20892 -0.30054 -19.81606 -30.18117 -1.94067 8.74138 -24.98963 -1.49458 1.65695 10.20590 -2.30296 1.70469 7.58257 -1.69182 0.68546 2.20256 9.54887 4.30386 -10.02990 -8.12396 5.14505 5.74593 -3.70871 2.37427 3.80591 0.00000 -0.00000 0.00000 -85.97577 -28.32578 53.90355 156.70258 -34.41244 -112.69431 -0.00000 0.00000 -5.78072 0.00000 -0.00000 0.00000 90.74983 27.90419 70.98665 -146.19544 43.93940 -106.02273 0.00000 -0.00000 -0.72554
0.00000 0.87094 0.00000 -2.82676 -2.32808 1.69765 0.00000 -0.00000 0.00000 -13.31412 -13.03073 -7.74342 2.66282 10.12812 29.39262 0.81204 12.65020 -25.88932 0.34833 -3.79213 -10.49259 0.00000 -0.00000 0.00000 20.41388 9.73031 -6.31156 -1.65834 -8.11489 23.06358 -0.46273 -19.14346 -30.45210 -1.74887 8.32215 -23.69691 -0.75215 1.84065 10.84380 -1.67961 1.95496 8.23190 -1.49258 0.80857 2.54880 9.65651 3.91367 -10.43780 -9.10886 4.64308 5.59011 -4.06696 2.06991 3.80945 -0.00000 0.00000 0.00000 -86.67099 -35.53944 54.10497 156.93987 -34.15450 -112.82797 -0.00000 0.00000 -9.15453 -0.00000 0.00000 0.00000 92.15797 32.11919 74.04453 -147.89239 42.63280 -107.18635 0.00000 -0.00000 -1.04277
0.00000 0.87094 0.00000 -2.40924 -0.93896 1.90300 0.00000 -0.00000 0.00000 -13.12255 -13.80286 -8.84218 2.70042 10.19352 29.60570 0.79177 12.22940 -25.32034 0.36070 -3.85820 -10.67807 0.00000 -0.00000 0.00000 20.13191 8.83165 -8.12365 -1.84897 -8.54414 24.37943 -0.54755 -18.86681 -30.69007 -1.69798 8.20643 -23.34284 -0.73967 2.00892 12.18300 -1.85608 2.09556 8.79024 -1.72941 0.85966 2.43102 9.71935 3.62942 -10.36300 -9.30267 4.22549 4.75658 -4.16963 1.85753 3.51196 -0.00000 0.00000 0.00000 -85.03173 -37.50613 53.66297 156.64450 -34.47527 -112.66146 -0.00000 0.00000 -5.82350 -0.00000 0.00000 0.00000 93.48157 34.46360 77.98752 -147.45113 42.98040 -106.88650 0.00000 -0.00000 -0.17062
0.00000 0.86453 0.00000 -2.94724 0.05063 1.87486 0.00000 -0.00000 0.00000 -11.48288 -13.09233 -12.41351 3.39417 11.30732 33.32349 0.99970 9.98552 -24.97256 0.53941 -4.70573 -13.07113 0.00000 -0.00000 0.00000 20.64943 6.99626 -12.02138 -2.52579 -9.88465 28.60400 -0.77427 -17.14224 -30.25369 -1.78940 8.41290 -23.97541 -0.64575 2.40276 14.09780 -1.97908 2.47516 9.78573 -2.00332 1.01134 2.49715 9.70036 3.63302 -9.92299 -8.95931 4.12834 2.66866 -4.07424 1.83115 2.79527 -0.00000 -0.00000 0.00000 -82.84543 -36.64828 49.93078 156.36612 -34.77469 -112.50329 -0.00000 0.00000 -5.24277 -0.00000 -0.00000 0.00000 93.97735 36.10790 79.58892 -146.95193 43.36695 -106.54494 0.00000 0.00000 0.33915
0.00000 0.85095 0.00000 -2.61966 0.14740 1.07333 0.00000 -0.00000 0.00000 -10.99649 -10.64797 -16.30977 4.60689 12.92694 39.09559 1.30488 7.71186 -25.62234 1.17359 -6.87619 -19.34909 0.00000 -0.00000 0.00000 19.95563 4.59838 -17.08918 -3.99252 -12.15044 36.26625 -1.16932 -14.00166 -29.75285 -2.29705 9.45919 -27.24256 -1.37279 3.06016 16.36290 -2.96257 3.02600 10.86050 -2.77826 1.21481 2.51574 8.72387 3.17634 -9.18092 -5.17652 3.42572 0.30290 -3.09819 1.59576 2.00119 0.00000 -0.00000 0.00000 -81.42616 -30.85615 44.34902 155.32427 -35.87070 -111.90087 -0.00000 0.00000 -6.96793 0.00000 -0.00000 0.00000 94.08684 35.65055 78.16164 -147.36322 43.04899 -106.82653 0.00000 -0.00000 -0.34467
0.00000 0.83245 0.00000 -3.43671 -2.70523 0.00606 0.00000 -0.00000 0.00000 -9.10011 -6.53035 -19.85083 6.24911 14.66548 45.97348 1.78324 5.59020 -27.75001 1.47458 -7.67316 -21.72568 0.00000 -0.00000 0.00000 20.66883 5.70026 -20.68673 -5.71812 -14.14951 43.83970 -1.44910 -11.83719 -29.74436 -2.69944 10.19183 -29.60018 -1.60646 3.46469 18.05260 -4.04201 3.27342 11.60240 -3.90421 1.29111 2.53530 7.77729 2.96794 -7.86918 -0.86318 3.20272 -2.03523 -1.49360 1.50923 0.84310 -0.00000 0.00000 0.00000 -79.89765 -19.50146 32.87471 151.37059 -39.68925 -109.47678 -0.00000 0.00000 -10.14170 -0.00000 0.00000 0.00000 93.98696 34.61376 75.82368 -148.29126 42.31374 -107.45569 0.00000 -0.00000 -0.10674
0.00000 0.81997 0.00000 -3.33632 -8.70433 -0.89818 0.00000 -0.00000 0.00000 -8.83182 -2.02077 -20.25998 7.23899 15.52988 49.77252 2.11681 6.12208 -30.21444 1.33687 -7.32112 -20.67028 0.00000 -0.00000 0.00000 20.71287 8.68064 -21.61470 -6.77565 -15.14003 48.02063 -1.69463 -9.46840 -29.57844 -2.87743 10.49395 -30.59156 -3.43980 2.97465 17.86640 -4.94606 2.24488 11.78200 -3.67887 0.64110 2.73800 6.71491 3.61046 -7.09584 1.52989 4.17270 -2.35702 -0.52952 2.00323 0.55455 0.00000 -0.00000 0.00000 -79.42491 -7.98723 15.69333 134.98493 -50.77586 -97.74957 -0.00000 0.00000 -15.89090 0.00000 -0.00000 0.00000 92.91582 34.77782 75.64362 -149.40269 41.39991 -108.19735 0.00000 -0.00000 -0.80767
0.00000 0.82499 0.00000 -2.56981 -16.24797 -0.53177 0.00000 -0.00000 0.00000 -10.01243 2.30232 -18.18295 6.61263 14.99683 47.39358 2.23897 8.20765 -32.14402 0.93823 -6.16969 -17.27756 0.00000 -0.00000 0.00000 20.34237 12.56738 -20.80550 -6.40638 -14.81092 46.59169 -1.49127 -7.96324 -27.16225 -3.40773 11.32752 -33.39259 -4.89312 1.88183 16.48050 -6.04914 0.64456 11.15930 -3.77164 -0.22624 2.71137 7.35254 4.34657 -6.62937 0.40628 5.15749 -3.38904 -0.97599 2.44145 0.23177 0.00000 -0.00000 0.00000 -71.68341 -6.50690 2.90295 102.96239 -59.35549 -71.20147 -0.00000 0.00000 -19.39630 0.00000 -0.00000 0.00000 91.77849 34.30880 74.29364 -151.38157 39.67937 -109.48379 0.00000 -0.00000 -1.24176
0.00000 0.84259 0.00000 -1.65023 -23.37545 0.34560 0.00000 -0.00000 0.00000 -11.89004 5.13414 -13.68226 4.69978 13.03751 39.50906 2.09508 10.67951 -32.88195 0.20067 -2.88449 -7.95732 0.00000 -0.00000 0.00000 20.03836 16.11541 -17.77515 -4.82533 -13.18435 40.06255 -1.06827 -6.96177 -23.21425 -3.65412 11.68534 -34.62773 -6.20204 0.21235 14.67340 -6.05327 -1.50784 10.00060 -2.72456 -1.32121 2.37015 8.26817 6.02933 -4.75806 -4.39917 7.50309 -5.05852 -2.69870 3.58778 -0.27934 0.00000 0.00000 0.00000 -58.11459 -11.04348 -6.43321 109.81537 -58.46311 -77.07206 -0.00000 0.00000 -21.64140 0.00000 0.00000 0.00000 87.59554 33.36960 71.63637 -153.46933 37.72793 -110.78953 0.00000 -0.00000 -4.70047
0.00000 0.86317 0.00000 0.13079 -25.61210 0.37538 0.00000 -0.00000 0.00000 -14.88912 3.30688 -6.34155 2.43604 9.72068 28.07686 1.55409 15.45796 -33.46321 0.00258 -0.32771 -0.90043 0.00000 -0.00000 0.00000 19.15921 18.17856 -12.67513 -3.10965 -10.87047 31.84428 -0.64416 -8.68087 -20.71544 -3.52156 11.49496 -33.96793 -6.58889 -0.87488 13.08480 -5.77341 -2.74906 9.36262 -2.08936 -1.91887 2.55981 10.06630 7.16183 -3.00608 -9.48458 8.90121 -7.10839 -4.38023 4.30554 -0.71900 -0.00000 -0.00000 0.00000 -26.95098 -31.72236 -17.25504 98.45945 -59.72786 -67.31940 -0.00000 0.00000 -21.22690 -0.00000 -0.00000 0.00000 81.86070 30.10096 66.11276 -154.82997 36.37727 -111.60946 0.00000 -0.00000 -5.52828
0.00000 0.87401 0.00000 -0.74089 -22.26479 2.45971 0.00000 -0.00000 0.00000 -14.42029 -4.61071 -2.45326 1.47498 7.67415 21.72864 1.35561 18.81263 -35.47914 0.05714 1.54240 4.24262 0.00000 -0.00000 0.00000 20.39786 19.24607 -9.86283 -2.02499 -8.91793 25.53895 -0.19704 -13.18074 -20.95007 -2.83463 10.42241 -30.35573 -7.06458 -2.47467 12.08430 -3.43163 -4.57419 8.17796 0.80360 -2.75586 2.09697 10.62330 7.30343 -1.92561 -12.09340 9.14898 -6.42320 -5.26485 4.49279 -0.49271 0.00000 0.00000 0.00000 22.96661 -51.86011 -47.12620 32.83351 -43.20168 -13.30796 -0.00000 0.00000 -11.01200 0.00000 0.00000 0.00000 76.90702 27.45583 61.95422 -154.78366 36.42429 -111.58198 0.00000 -0.00000 -7.43187
0.00000 0.87751 0.00000 0.09836 -19.79168 2.86446 0.00000 -0.00000 0.00000 -16.06018 -10.71185 1.88907 0.88156 5.98545 16.74223 1.32977 21.62276 -38.17897 0.30703 3.56241 9.84870 0.00000 -0.00000 0.00000 19.60023 19.20344 -9.17917 -1.81532 -8.47030 24.15193 -0.09478 -15.21709 -22.55355 -2.40993 9.67227 -27.92183 -8.26900 -3.19229 11.96370 -1.49683 -5.52811 7.55675 3.56963 -3.25263 1.90356 13.35860 8.30491 -5.16881 -18.58130 10.52230 -1.61313 -7.39044 4.94204 2.17098 -0.00000 -0.00000 0.00000 68.00397 -58.78183 -113.12676 7.39772 -12.57193 -0.81600 -0.00000 -0.00000 51.35290 -0.00000 -0.00000 0.00000 75.30950 27.93242 62.14687 -153.10795 38.07605 -110.56753 0.00000 -0.00000 -6.08280
0.00000 0.87834 0.00000 1.45246 -20.64921 2.35420 0.00000 -0.00000 0.00000 -18.61639 -13.85865 6.27126 0.53614 4.69167 13.03121 2.05125 22.81457 -42.67361 0.91868 6.10682 17.09467 0.00000 -0.00000 0.00000 18.54069 20.61559 -8.36448 -1.85762 -8.56298 24.43756 -0.13450 -15.98937 -23.95088 -2.36779 9.59346 -27.66999 -7.15417 -3.58242 10.62660 -1.53326 -5.80923 7.65356 2.82206 -3.37125 2.63437 12.81960 9.24056 -5.48937 -19.95360 11.81820 -1.58192 -7.60582 5.52615 2.51774 -0.00000 -0.00000 0.00000 74.96829 -65.80398 -100.61542 9.88735 -16.56317 -1.44267 -0.00000 -0.00000 15.12270 -0.00000 -0.00000 0.00000 77.53081 28.38435 66.37789 -151.49199 39.57972 -109.55421 0.00000 -0.00000 -6.85660
